<svg xmlns="http://www.w3.org/2000/svg" fill="#ccc" height="20" width="20"><path d="M8.979 11V2.604h2.042V11ZM10 17.396q-1.542 0-2.885-.584-1.344-.583-2.344-1.583-1-1-1.583-2.344-.584-1.343-.584-2.885 0-1.667.688-3.156.687-1.49 1.958-2.511l1.458 1.459q-.979.77-1.52 1.864Q4.646 8.75 4.646 10q0 2.229 1.562 3.792Q7.771 15.354 10 15.354t3.792-1.562q1.562-1.563 1.562-3.792 0-1.25-.542-2.354-.541-1.104-1.562-1.896l1.458-1.479q1.334 1.062 2.011 2.562.677 1.5.677 3.167 0 1.542-.584 2.885-.583 1.344-1.583 2.344-1 1-2.344 1.583-1.343.584-2.885.584Z"/></svg>